<?xml version="1.0" encoding="UTF-8" standalone="no"?>
<!DOCTYPE svg PUBLIC "-//W3C//DTD SVG 1.1//EN" "http://www.w3.org/Graphics/SVG/1.1/DTD/svg11.dtd">
<svg width="100%" height="100%" viewBox="0 0 183 183" version="1.1" xmlns="http://www.w3.org/2000/svg" xmlns:xlink="http://www.w3.org/1999/xlink" xml:space="preserve" xmlns:serif="http://www.serif.com/" style="fill-rule:evenodd;clip-rule:evenodd;stroke-linejoin:round;stroke-miterlimit:2;">
    <g transform="matrix(1,0,0,1,-605.682,-449.182)">
        <g transform="matrix(0.831818,0,0,0.831818,605.682,449.182)">
            <rect id="Ikon---N" serif:id="Ikon - N" x="0" y="0" width="220" height="220" style="fill:none;"/>
            <g id="Ikon---N1" serif:id="Ikon - N">
                <g id="anker" transform="matrix(1.20219,0,0,1.20219,93.9407,194.687)">
                    <path d="M0,-140.889L-12.058,-140.889C-14.251,-140.889 -16.029,-139.111 -16.029,-136.918L-16.029,-120.799L-28.256,-120.799C-30.501,-120.799 -32.321,-118.979 -32.321,-116.734L-32.321,-104.864C-32.321,-102.619 -30.501,-100.799 -28.256,-100.799L-16.029,-100.799L-16.029,-24.065C-16.029,-21.82 -17.849,-20 -20.094,-20L-21.924,-20C-35.901,-20 -47.232,-31.331 -47.232,-45.308L-47.232,-50.799L-40.729,-50.799C-38.483,-50.799 -36.663,-52.619 -36.663,-54.864L-36.663,-66.734C-36.663,-68.979 -38.483,-70.799 -40.729,-70.799L-73.616,-70.799C-75.861,-70.799 -77.682,-68.979 -77.682,-66.734L-77.682,-54.864C-77.682,-52.619 -75.861,-50.799 -73.616,-50.799L-67.232,-50.799L-67.232,-45.308C-67.232,-20.285 -46.947,0 -21.924,0L0,0C2.193,0 3.971,-1.778 3.971,-3.971L3.971,-136.918C3.971,-139.111 2.193,-140.889 0,-140.889" style="fill:rgb(151,161,200);fill-rule:nonzero;"/>
                </g>
                <g id="h" transform="matrix(1.20219,0,0,1.20219,164.979,122.448)">
                    <path d="M0,-20.709L-15.12,-20.709L-15.12,-76.828C-15.12,-79.021 -16.897,-80.799 -19.091,-80.799L-31.149,-80.799C-33.342,-80.799 -35.12,-79.021 -35.12,-76.828L-35.12,56.119C-35.12,58.312 -33.342,60.09 -31.149,60.09L-19.091,60.09C-16.897,60.09 -15.12,58.312 -15.12,56.119L-15.12,3.356C-15.12,1.111 -13.3,-0.709 -11.055,-0.709L0,-0.709C13.978,-0.709 25.308,10.622 25.308,24.599L25.308,55.725C25.308,57.97 27.128,59.79 29.373,59.79L41.242,59.79C43.488,59.79 45.308,57.97 45.308,55.725L45.308,24.599C45.308,-0.424 25.022,-20.709 0,-20.709" style="fill:rgb(151,161,200);fill-rule:nonzero;"/>
                </g>
            </g>
        </g>
    </g>
</svg>
