<?xml version="1.0" encoding="UTF-8" standalone="no"?>
<!DOCTYPE svg PUBLIC "-//W3C//DTD SVG 1.1//EN" "http://www.w3.org/Graphics/SVG/1.1/DTD/svg11.dtd">
<svg width="100%" height="100%" viewBox="0 0 483 141" version="1.1" xmlns="http://www.w3.org/2000/svg" xmlns:xlink="http://www.w3.org/1999/xlink" xml:space="preserve" xmlns:serif="http://www.serif.com/" style="fill-rule:evenodd;clip-rule:evenodd;stroke-linejoin:round;stroke-miterlimit:2;">
    <g transform="matrix(1,0,0,1,0,-39.5555)">
        <g transform="matrix(1,0,0,1,0,39.5555)">
            <rect id="Logo---lm---transp" serif:id="Logo - lm - transp" x="0" y="0" width="482.733" height="140.889" style="fill:none;"/>
            <clipPath id="_clip1">
                <rect id="Logo---lm---transp1" serif:id="Logo - lm - transp" x="0" y="0" width="482.733" height="140.889"/>
            </clipPath>
            <g clip-path="url(#_clip1)">
                <g id="anker" transform="matrix(1,0,0,1,76.6816,140.889)">
                    <path d="M0,-140.889L-12.058,-140.889C-14.251,-140.889 -16.029,-139.111 -16.029,-136.918L-16.029,-120.799L-28.256,-120.799C-30.501,-120.799 -32.321,-118.979 -32.321,-116.734L-32.321,-104.864C-32.321,-102.619 -30.501,-100.799 -28.256,-100.799L-16.029,-100.799L-16.029,-24.065C-16.029,-21.82 -17.849,-20 -20.094,-20L-21.924,-20C-35.901,-20 -47.232,-31.331 -47.232,-45.308L-47.232,-50.799L-40.729,-50.799C-38.483,-50.799 -36.663,-52.619 -36.663,-54.864L-36.663,-66.734C-36.663,-68.979 -38.483,-70.799 -40.729,-70.799L-73.616,-70.799C-75.861,-70.799 -77.682,-68.979 -77.682,-66.734L-77.682,-54.864C-77.682,-52.619 -75.861,-50.799 -73.616,-50.799L-67.232,-50.799L-67.232,-45.308C-67.232,-20.285 -46.947,0 -21.924,0L0,0C2.193,0 3.971,-1.778 3.971,-3.971L3.971,-136.918C3.971,-139.111 2.193,-140.889 0,-140.889" style="fill:rgb(151,161,200);fill-rule:nonzero;"/>
                </g>
                <g id="havn" opacity="0.8">
                    <g transform="matrix(1,0,0,1,478.298,60.39)">
                        <path d="M0,80.499L-11.87,80.499C-14.115,80.499 -15.935,78.679 -15.935,76.434L-15.935,45.308C-15.935,31.331 -27.266,20 -41.243,20L-52.297,20C-54.542,20 -56.363,21.82 -56.363,24.065L-56.363,76.434C-56.363,78.679 -58.183,80.499 -60.428,80.499L-72.297,80.499C-74.542,80.499 -76.363,78.679 -76.363,76.434L-76.363,4.065C-76.363,1.82 -74.542,0 -72.297,0L-41.243,0C-16.22,0 4.065,20.285 4.065,45.308L4.065,76.434C4.065,78.679 2.245,80.499 0,80.499" style="fill:rgb(62,74,119);fill-rule:nonzero;"/>
                    </g>
                    <g transform="matrix(1,0,0,1,205.146,60.0896)">
                        <path d="M0,80.799L11.87,80.799C14.115,80.799 15.935,78.979 15.935,76.734L15.935,45.308C15.935,31.331 27.266,20 41.243,20L52.297,20C54.542,20 56.363,21.82 56.363,24.065L56.363,76.434C56.363,78.679 58.183,80.499 60.428,80.499L72.297,80.499C74.542,80.499 76.363,78.679 76.363,76.434L76.363,4.065C76.363,1.82 74.542,0 72.297,0L41.243,0C16.22,0 -4.065,20.285 -4.065,45.308L-4.065,76.734C-4.065,78.979 -2.245,80.799 0,80.799" style="fill:rgb(62,74,119);fill-rule:nonzero;"/>
                    </g>
                    <g transform="matrix(1,0,0,1,336.628,60.0896)">
                        <path d="M0,80.799L-31.054,80.799C-33.3,80.799 -35.12,78.979 -35.12,76.734L-35.12,4.065C-35.12,1.82 -33.3,0 -31.054,0L-19.185,0C-16.94,0 -15.12,1.82 -15.12,4.065L-15.12,56.734C-15.12,58.979 -13.3,60.799 -11.054,60.799L0,60.799C13.977,60.799 25.308,49.468 25.308,35.491L25.308,4.365C25.308,2.12 27.128,0.3 29.373,0.3L41.243,0.3C43.488,0.3 45.308,2.12 45.308,4.365L45.308,35.491C45.308,60.514 25.023,80.799 0,80.799" style="fill:rgb(62,74,119);fill-rule:nonzero;"/>
                    </g>
                    <g transform="matrix(1,0,0,1,135.772,80.7987)">
                        <path d="M0,-20.709L-15.12,-20.709L-15.12,-76.828C-15.12,-79.021 -16.897,-80.799 -19.091,-80.799L-31.149,-80.799C-33.342,-80.799 -35.12,-79.021 -35.12,-76.828L-35.12,56.119C-35.12,58.312 -33.342,60.09 -31.149,60.09L-19.091,60.09C-16.897,60.09 -15.12,58.312 -15.12,56.119L-15.12,3.356C-15.12,1.111 -13.3,-0.709 -11.055,-0.709L0,-0.709C13.978,-0.709 25.308,10.622 25.308,24.599L25.308,55.725C25.308,57.97 27.128,59.79 29.373,59.79L41.242,59.79C43.488,59.79 45.308,57.97 45.308,55.725L45.308,24.599C45.308,-0.424 25.022,-20.709 0,-20.709" style="fill:rgb(62,74,119);fill-rule:nonzero;"/>
                    </g>
                </g>
            </g>
        </g>
    </g>
</svg>
