<?xml version="1.0" encoding="UTF-8" standalone="no"?>
<!DOCTYPE svg PUBLIC "-//W3C//DTD SVG 1.1//EN" "http://www.w3.org/Graphics/SVG/1.1/DTD/svg11.dtd">
<svg width="100%" height="100%" viewBox="0 0 2880 2880" version="1.1" xmlns="http://www.w3.org/2000/svg" xmlns:xlink="http://www.w3.org/1999/xlink" xml:space="preserve" xmlns:serif="http://www.serif.com/" style="fill-rule:evenodd;clip-rule:evenodd;stroke-linejoin:round;stroke-miterlimit:2;">
    <rect id="Artboard1" x="0" y="0" width="2880" height="2880" style="fill:none;"/>
    <g id="Artboard11" serif:id="Artboard1">
        <g id="RSS---rast" serif:id="RSS - rast">
            <path d="M2705.44,680.735L2705.44,2199.26C2705.44,2478.63 2478.63,2705.44 2199.26,2705.44L680.735,2705.44C401.368,2705.44 174.558,2478.63 174.558,2199.26L174.558,680.735C174.558,401.368 401.368,174.558 680.735,174.558L2199.26,174.558C2478.63,174.558 2705.44,401.368 2705.44,680.735ZM524.687,1129.92L524.687,1488.84C978.778,1488.84 1348.21,1874.02 1348.21,2347.47L1692.46,2347.47C1692.46,1676.11 1168.6,1129.92 524.687,1129.92ZM1766.17,1056.78C1435.76,712.284 996.122,522.558 528.255,522.558L528.255,881.474C904.171,881.474 1257.36,1033.86 1522.76,1310.57C1788.16,1587.29 1934.32,1955.53 1934.32,2347.46L2278.57,2347.46C2278.56,1859.66 2096.59,1401.28 1766.17,1056.78ZM769.117,1843.31C633.037,1843.31 522.558,1958.5 522.558,2100.38C522.558,2242.26 633.037,2357.44 769.117,2357.44C905.196,2357.44 1015.68,2242.26 1015.68,2100.38C1015.68,1958.5 905.196,1843.31 769.117,1843.31Z" style="fill:rgb(151,161,200);"/>
        </g>
    </g>
</svg>
