<?xml version="1.0" encoding="UTF-8" standalone="no"?>
<!DOCTYPE svg PUBLIC "-//W3C//DTD SVG 1.1//EN" "http://www.w3.org/Graphics/SVG/1.1/DTD/svg11.dtd">
<svg width="100%" height="100%" viewBox="0 0 2880 2880" version="1.1" xmlns="http://www.w3.org/2000/svg" xmlns:xlink="http://www.w3.org/1999/xlink" xml:space="preserve" xmlns:serif="http://www.serif.com/" style="fill-rule:evenodd;clip-rule:evenodd;stroke-linecap:round;stroke-linejoin:round;stroke-miterlimit:1.5;">
    <rect id="Artboard1" x="0" y="0" width="2880" height="2880" style="fill:none;"/>
    <clipPath id="_clip1">
        <rect id="Artboard11" serif:id="Artboard1" x="0" y="0" width="2880" height="2880"/>
    </clipPath>
    <g clip-path="url(#_clip1)">
        <g id="Mail" transform="matrix(2.66667,0,0,2.66667,6.82121e-13,0)">
            <g transform="matrix(0.992195,0,0,0.7195,-7.62042,143.634)">
                <path d="M1050.95,150.883C1050.95,117.522 1031.31,90.437 1007.12,90.437L96.742,90.437C72.55,90.437 52.909,117.522 52.909,150.883L52.909,950.899C52.909,984.259 72.55,1011.34 96.742,1011.34L1007.12,1011.34C1031.31,1011.34 1050.95,984.259 1050.95,950.899L1050.95,150.883Z" style="fill:none;stroke:rgb(151,161,200);stroke-width:103.85px;"/>
            </g>
            <g transform="matrix(1.08362,-0.0836197,-0.0836197,1.08362,36.6943,-31.9427)">
                <path d="M72.302,839.118L352.806,558.614" style="fill:none;stroke:rgb(151,161,200);stroke-width:90px;stroke-linecap:butt;"/>
            </g>
            <g transform="matrix(0.0836197,1.08362,-1.08362,-0.0836197,1610.95,535.7)">
                <path d="M72.302,839.118L352.806,558.614" style="fill:none;stroke:rgb(151,161,200);stroke-width:90px;stroke-linecap:butt;"/>
            </g>
            <g transform="matrix(1,0,0,1,0.8705,3.88111)">
                <path d="M44.005,204.823L505.897,605.561C528.052,621.975 550.207,621.848 572.362,605.561L1034.25,204.823" style="fill:none;stroke:rgb(151,161,200);stroke-width:90px;stroke-linecap:butt;stroke-miterlimit:1;"/>
            </g>
        </g>
    </g>
</svg>
